<svg width="5027" height="1319" viewBox="0 0 5027 1319" fill="none" xmlns="http://www.w3.org/2000/svg">
<path d="M632.333 1.13326C604.867 3.6666 583.667 6.19993 566.333 9.13327C427.667 32.0666 301.133 96.8666 200.867 196.333C83.4 312.867 14.0667 464.6 2.33335 630.733C-3.53332 712.067 6.60001 797.4 31.6667 879C44.2 919.667 68.0667 973.8 91 1013.67C158.333 1130.73 260.733 1226.07 381.667 1284.47C407.533 1297 429.667 1306.33 451 1313.67C465.267 1318.6 468.067 1319.13 476.467 1318.6C493 1317.67 504.067 1309.67 507.8 1295.93C508.733 1292.47 509.133 1268.33 508.867 1225.4L508.6 1160.07L503.8 1160.87C473.533 1166.33 461.667 1167.4 436.333 1167.4C407.667 1167.53 395.4 1165.93 373.533 1159.53C349.533 1152.6 326.467 1139.13 309.133 1122.07C295.667 1108.6 289 1098.47 278.867 1076.2C256.867 1027.4 238.333 1002.6 209 983C182.467 965.267 174.067 953 183.133 945.8C191 939.667 210.2 938.067 227.667 942.2C240.467 945.267 261.933 955.533 273 964.067C287.667 975.133 302.2 991.667 316.2 1013C335.8 1042.6 358.6 1063.93 379 1071.8C386.2 1074.47 386.6 1075.67 380.333 1075.8C367.533 1076.07 367.267 1089.27 380.067 1094.33C394.2 1099.93 404.333 1089.67 393.933 1080.07C389.933 1076.2 389.933 1076.07 393 1077C404.867 1080.73 411.533 1081.93 426.467 1082.6C451.133 1083.67 475.4 1079.53 499.667 1069.93L509.667 1066.07L511.4 1058.2C519.4 1022.6 530.067 999.8 546.733 981.933C550.467 978.2 552.6 975 551.533 975C550.467 975 541.533 973.8 531.667 972.333C475.4 964.333 433.133 951.933 393.667 931.933C307.4 888.067 258.6 808.467 247.8 693.667C241.267 624.467 248.2 572.2 270.467 525.667C280.467 504.733 292.067 487 311.133 463.4L314.467 459.267L311.267 448.733C299.8 412.867 298.333 371.4 307 329C310.6 311.133 319.933 281.933 322.6 280.067C323.533 279.4 332.2 279.133 341.667 279.533C355 279.933 362.6 281 374.333 284.067C410.067 293.267 459.267 316.867 499.933 344.6L507.667 349.8L514.6 347.667C541.667 339.933 592.067 331.533 629.133 328.733C653.933 326.867 718.333 327.667 741 330.2C775.933 333.933 816.467 341.267 839.133 347.667L846.067 349.667L864.467 337.933C921.8 301.4 971.667 281.4 1010.47 279.4C1033.13 278.2 1031.67 277.4 1038.07 296.6C1055 347.667 1057 400.2 1044.07 444.333C1042.2 450.6 1040.47 456.6 1040.07 457.667C1039.8 458.867 1043.27 464.333 1048.33 470.333C1072.6 499.4 1091.13 535.667 1100.33 572.067C1114.6 628.733 1109.93 715.8 1089.13 779C1057.53 874.733 991.133 933 883 960.067C861.667 965.4 829.4 971.4 813 973C799.8 974.333 799.8 974.333 805.933 980.733C827.267 1002.87 841.267 1037.67 844.467 1075.67C844.867 1081.53 845.4 1133.8 845.533 1191.8L845.667 1297.27L849.667 1303.8C852.2 1307.8 856.2 1311.8 860.2 1314.33C866.333 1318.07 867.667 1318.33 879.533 1318.2C891.8 1318.2 893.133 1317.8 911.667 1310.73C1038.6 1261.93 1141.27 1185 1219.93 1079.4C1244.6 1046.33 1264.87 1013.13 1284.47 973.4C1323.13 894.867 1345.8 809.933 1351.8 720.333C1354.6 677.4 1352.2 618.733 1345.67 575C1325.8 441 1264.6 314.867 1170.6 214.2C1079 115.933 959.533 47.2666 827.8 16.9999C776.6 5.2666 742.467 1.39993 683.667 0.999931C658.333 0.866598 635.267 0.866598 632.333 1.13326Z" fill="white"/>
<path d="M1909.13 193C1813.4 201.933 1741.8 231.933 1686.87 286.333C1607.4 365.133 1567.8 491.667 1567.4 668.333C1567.27 754.467 1576.2 822.067 1595.93 883C1629.67 987.667 1692.73 1058.47 1785.4 1095.53C1840.87 1117.8 1899.13 1127.67 1977.67 1128.2C2026.73 1128.47 2055 1125.93 2096.2 1117.53C2135 1109.67 2178.47 1094.87 2211 1078.73C2224.87 1071.8 2243.67 1060.07 2245 1057.67C2245.8 1056.07 2246.33 973.133 2246.33 828.067C2246.33 615 2246.07 600.867 2243.93 598.2C2242.73 596.6 2240.33 594.6 2238.73 593.8C2236.6 592.733 2193.93 592.333 2087 592.333H1938.07L1933.53 596.867L1929 601.4V676.6C1929 748.067 1929.13 751.933 1931.53 755.8C1933 758.067 1935.8 760.467 1937.93 761.133C1939.93 761.8 1967.27 762.333 1998.73 762.333L2055.67 762.2L2055.4 850.867L2055 939.533L2051 940.6C2025.93 947.267 1949.53 950.067 1920.33 945.133C1863 935.667 1822.33 905.533 1796.07 853.133C1774.07 809.4 1763.27 754.6 1761.53 678.333C1758.33 547.4 1785.67 460.467 1844.73 413.4C1872.33 391.4 1909.27 378.067 1954.2 373.933C1967.8 372.733 2030.07 372.733 2048.33 374.067C2081 376.333 2117.13 383.267 2148.07 393C2165.27 398.467 2169 398.733 2173.67 394.6C2176.73 391.933 2178.47 385.667 2191 332.333C2198.73 299.667 2206.47 266.733 2208.33 259.267C2213 239.667 2212.47 238.733 2192.73 229.133C2157.53 211.933 2103.13 199.4 2041.67 194.333C2035.8 193.8 2029.27 193.133 2027 192.867C2015.53 191.267 1927 191.4 1909.13 193Z" fill="white"/>
<path d="M3103.13 226.333C3100.47 227.133 3098.2 229.267 3096.73 232.333C3094.47 236.733 3094.33 260.333 3094.33 667.4C3094.33 1132.33 3093.93 1103.8 3101.13 1108.87C3103.93 1110.73 3112.87 1111 3189.4 1111C3280.47 1111 3280.07 1111 3283.67 1104.47C3284.6 1102.73 3285 1040.87 3285 915.8V729.667H3413.13H3541.13L3540.47 913.933C3539.93 1065 3540.2 1099 3541.67 1102.47C3545.4 1111.4 3540.47 1111 3635.8 1111C3720.6 1111 3722.07 1111 3725.4 1108.33C3727.4 1106.73 3729.53 1103.27 3730.33 1100.6C3732.2 1093.67 3732.2 241.667 3730.2 234.6C3727.4 224.6 3731.93 225 3638.47 225C3592.6 224.867 3553.27 225.267 3551 225.933C3548.87 226.467 3545.93 228.2 3544.33 229.667C3541.67 232.333 3541.67 233.667 3541 394.067L3540.33 555.667H3413H3285.67L3285 393.933L3284.33 232.067L3280.6 228.867C3278.6 227.133 3275.8 225.533 3274.6 225.533C3261.4 224.6 3106.33 225.267 3103.13 226.333Z" fill="white"/>
<path d="M4462.07 225.4C4460.2 225.667 4457 227.4 4455.13 229.267L4451.67 232.733V667.933V1103.27L4455.53 1107.13L4459.4 1111H4520.73H4582.07L4586.2 1107.53C4588.47 1105.67 4590.87 1101.93 4591.53 1099.27C4592.6 1095 4597 1067.8 4597 1065.13C4597 1064.6 4599.53 1066.2 4602.73 1068.73C4611.67 1076.07 4629.93 1087.53 4643.67 1094.33C4690.07 1117.67 4741.8 1128.73 4798.33 1127.67C4867 1126.33 4913.67 1109.53 4949.8 1073.13C4987.67 1035 5010.6 975.933 5020.33 892.333C5032.73 784.6 5025.53 687.8 5000.07 621.133C4993.93 605 4981.27 580.867 4971.93 567.667C4957.13 546.867 4933.27 525.8 4910.33 513.267C4865.93 488.867 4797 481.8 4732.6 495.133C4704.6 500.867 4671.13 512.867 4651.4 524.333L4642.33 529.533V382.867C4642.33 223.933 4642.6 230.867 4635.27 226.733C4633 225.533 4612.6 225.133 4549 225C4503.13 225 4464.07 225.133 4462.07 225.4ZM4767 647.667C4806.07 658.2 4827.93 692.067 4835 753C4836.33 764.067 4837 782.6 4837 804.333C4837 915 4820.73 957.533 4774.07 969C4762.2 971.933 4730.33 972.733 4713.4 970.333C4688.87 967 4659 957.267 4644.07 947.933L4638.33 944.333V808.333V672.333L4647.93 667.533C4668.47 657.267 4695.93 648.467 4716.6 645.8C4729.8 644.067 4757.53 645.133 4767 647.667Z" fill="white"/>
<path d="M2420.73 245.667C2369.27 254.333 2332.07 297.8 2331.53 349.8C2331.27 370.333 2335.67 387.267 2345.67 405C2371.27 450.333 2428.87 470.067 2476.73 449.933C2507.8 436.867 2531 409.267 2539.13 375.533C2542.33 362.867 2542.2 338.6 2539.13 326.333C2536.07 314.333 2527.67 296.333 2521.13 287.8C2497.27 256.2 2457.4 239.533 2420.73 245.667Z" fill="white"/>
<path d="M2697.53 334.733C2690.07 335.8 2690.33 332.6 2690.07 425.667L2689.67 511.533L2644.07 523C2619 529.267 2597.27 535.267 2595.67 536.333C2594.2 537.4 2592.47 540.467 2591.8 543C2591.27 545.533 2590.87 572.067 2591 601.8C2591 651.4 2591.27 656.2 2593.4 659.533C2594.73 661.533 2597.27 663.667 2599.13 664.333C2601 665.133 2621.8 665.667 2646.47 665.667H2690.33L2690.6 803.267C2690.73 879 2690.87 941.933 2691 943C2691.13 944.067 2691.67 949.8 2692.2 955.667C2694.73 981.933 2702.47 1011.27 2712.47 1031.8C2734.2 1076.47 2773.8 1106.2 2828.33 1118.73C2853 1124.47 2870.6 1126.2 2905 1126.2C2934.73 1126.2 2939.53 1125.93 2958.33 1122.6C2984.47 1118.07 3009 1111.67 3012.07 1108.6C3013.27 1107.27 3014.87 1104.47 3015.4 1102.33C3017.13 1095.67 3017.4 983.667 3015.67 978.467C3012.6 969.133 3008.47 968.333 2977.67 970.867C2930.2 974.733 2897.53 963.533 2885.27 939.533C2878.07 925.533 2878.33 929.933 2878.33 792.733V665.667H2941.8H3005.27L3009.8 661.133L3014.33 656.6V587.267C3014.33 545.4 3013.8 516.467 3013 514.467C3012.33 512.6 3009.8 509.8 3007.4 508.333C3003.13 505.8 3000.6 505.667 2940.73 505.667H2878.33L2878.2 469.933C2877.93 351.533 2877.67 339.133 2875.27 336.733C2873.27 334.733 2865.67 334.467 2786.73 334.467C2739.13 334.333 2699 334.467 2697.53 334.733Z" fill="white"/>
<path d="M2349.67 507C2348.2 507.533 2345.53 509.667 2343.67 511.667L2340.33 515.267L2339.93 805.4C2339.67 1079.67 2339.8 1095.93 2341.93 1100.33C2343.53 1103.4 2346.47 1106.07 2350.33 1108.07L2356.33 1111L2437.93 1110.73C2518.33 1110.33 2519.53 1110.33 2523.27 1107.53C2525.27 1106.07 2527.67 1102.73 2528.6 1100.2C2530.6 1094.33 2531.13 519.8 2529 514.467C2528.33 512.6 2525.8 509.8 2523.4 508.333C2519.13 505.8 2516.73 505.667 2435.67 505.8C2389.8 505.8 2351.13 506.333 2349.67 507Z" fill="white"/>
<path d="M3821.4 507.933C3819.8 508.2 3816.87 510.333 3815 512.6L3811.67 516.6L3811.8 730.067C3811.93 957.533 3811.93 955.4 3818.47 986.333C3832.73 1053.53 3869 1095.13 3930.47 1114.73C3977.93 1129.93 4048.6 1132.73 4102.73 1121.53C4139.4 1113.93 4187.93 1095 4219.67 1075.93C4231.4 1068.87 4230.47 1067.93 4233.67 1089C4235.53 1101.93 4236.33 1104.2 4239.8 1107.67L4243.67 1111.67L4287.4 1111.4C4365.93 1111.13 4357.93 1111.53 4362.47 1107.13L4366.33 1103.27V809.8V516.333L4362.47 512.067L4358.6 507.667L4274.47 507.267C4180.6 506.867 4182.6 506.733 4179 515.533C4177.27 519.667 4177 549 4177 731.533V942.867L4167.4 948.467C4149 959.133 4123.53 967.8 4099.93 971.133C4093.4 972.067 4081.53 972.333 4071.27 971.933C4033.13 970.467 4016.2 958.867 4006.87 927.667C4004.6 920.2 4004.33 907.667 4003.67 718.333C4003.13 554.2 4002.73 516.467 4001.27 513.933C3997.27 507 3996.87 507 3907.4 507.133C3861.67 507.267 3823 507.667 3821.4 507.933Z" fill="white"/>
<path d="M237.133 954.2C232.6 959.533 243.267 968.6 250.733 965.8C257.933 963 253.533 954.067 244.2 952.733C240.333 952.2 238.467 952.6 237.133 954.2Z" fill="white"/>
<path d="M270.333 977.667C266.067 985.667 280.6 999.267 286.867 993C292.6 987.133 285.4 975.133 276.067 975C273.133 975 271.267 975.8 270.333 977.667Z" fill="white"/>
<path d="M293.533 1011.67C287.533 1020.87 302.6 1037.4 310.333 1030.33C314.867 1026.2 313.267 1017.53 306.867 1011.67C302.067 1007.27 296.467 1007.27 293.533 1011.67Z" fill="white"/>
<path d="M329.4 1054.33C325.533 1057.13 325 1060.6 327.667 1066.6C331.533 1075.13 341 1079.67 347 1075.8C354.067 1071.13 349.133 1058.47 338.733 1054.2C333.4 1051.93 332.867 1051.93 329.4 1054.33Z" fill="white"/>
<path d="M440.333 1086.6C433 1087.93 431.4 1088.6 429 1091C421.4 1098.6 433.133 1109 445.267 1105.53C450.2 1104.2 455.667 1099.4 455.667 1096.47C455.533 1091.4 446.333 1085.53 440.333 1086.6Z" fill="white"/>
<path d="M495.667 1087C482.333 1089.4 477.933 1099.93 487.933 1105.13C495.4 1109 508.867 1104.6 510.733 1097.8C512.467 1091.13 504.333 1085.4 495.667 1087Z" fill="white"/>
</svg>
